<?xml version="1.0" encoding="iso-8859-1"?>
<!-- Generator: Adobe Illustrator 19.0.0, SVG Export Plug-In . SVG Version: 6.00 Build 0)  -->
<svg version="1.1" id="Layer_1" xmlns="http://www.w3.org/2000/svg" xmlns:xlink="http://www.w3.org/1999/xlink" x="0px" y="0px"
	 viewBox="0 0 505.395 505.395" style="enable-background:new 0 0 505.395 505.395;" xml:space="preserve">
<g transform="translate(1 1)">
	<path style="fill:#ECF4F7;" d="M294.253,332.653L294.253,332.653c0,9.387-7.68,17.067-17.067,17.067s-17.067-7.68-17.067-17.067
		s7.68-17.067,17.067-17.067S294.253,323.267,294.253,332.653"/>
	<path style="fill:#AAB1BA;" d="M307.907,431.64l3.413-17.067c136.533,0,171.52,26.453,179.2,51.2l8.533,34.133h-204.8
		L307.907,431.64z M191.853,414.573l3.413,17.067l13.653,68.267H4.12l8.533-34.133C21.187,440.173,55.32,414.573,191.853,414.573z"
		/>
	<path style="fill:#FFD0A1;" d="M123.587,175.64c0,0,0,17.067,17.067,17.067c8.533-17.067,17.067-51.2,17.067-68.267
		c34.133,0,136.533-5.12,153.6-34.133c0,34.133,34.133,68.267,34.133,68.267s17.067,17.067,34.133,17.067
		c9.387,0,17.067,7.68,17.067,17.067v34.133c0,9.387-7.68,17.067-17.067,17.067c0,0-5.12,12.8-11.947,29.867
		c-7.68,19.627-18.773,43.52-28.16,59.733c-0.853,1.707-2.56,3.413-3.413,5.12c-10.24,16.213-25.6,42.667-85.333,42.667
		S175.64,354.84,165.4,338.627c-17.067-25.6-42.667-93.867-42.667-93.867c-9.387,0-17.067-7.68-17.067-17.067V193.56
		C106.52,183.32,114.2,175.64,123.587,175.64 M294.253,332.653L294.253,332.653c0-9.387-7.68-17.067-17.067-17.067
		s-17.067,7.68-17.067,17.067s7.68,17.067,17.067,17.067S294.253,342.04,294.253,332.653"/>
	<path style="fill:#AAB1BA;" d="M251.587,414.573c9.387,0,17.067,7.68,17.067,17.067s-7.68,17.067-17.067,17.067
		s-17.067-7.68-17.067-17.067S242.2,414.573,251.587,414.573"/>
	<path style="fill:#AE938D;" d="M379.587,124.44v51.2c-17.067,0-34.133-17.067-34.133-17.067S311.32,124.44,311.32,90.307
		c-17.067,29.013-119.467,34.133-153.6,34.133c0,17.067-8.533,51.2-17.067,68.267c-17.067,0-17.067-17.067-17.067-17.067
		c-15.36-11.093-17.067-34.133-17.067-34.133s0-136.533,145.067-136.533c30.72,0,51.2,8.533,42.667,25.6
		C379.587,30.573,379.587,124.44,379.587,124.44"/>
	<path style="fill:#F2EDDA;" d="M195.267,431.64h2.56h36.693c0,9.387,7.68,17.067,17.067,17.067s17.067-7.68,17.067-17.067h38.4
		h0.853l-13.653,68.267H208.92L195.267,431.64z"/>
</g>
<path style="fill:#51565F;" d="M500.053,505.173c-1.707,0-3.413-1.707-4.267-3.413l-8.533-34.133
	c-10.24-31.573-68.267-47.787-171.52-47.787l-16.213,81.92c-0.853,2.56-2.56,3.413-5.12,3.413c-2.56-0.853-3.413-2.56-3.413-5.12
	l17.067-85.333c0-1.707,2.56-3.413,4.267-3.413c0.853,0,1.707,0,2.56,0c109.227,0,168.107,17.92,180.907,53.76l8.533,34.133
	c0.853,2.56-0.853,4.267-3.413,5.12C500.907,505.173,500.053,505.173,500.053,505.173z M5.12,505.173H4.267
	c-2.56-0.853-3.413-2.56-3.413-5.12l8.533-34.133c7.68-23.893,34.987-54.613,183.467-54.613c1.707,0,3.413,1.707,4.267,3.413
	l17.067,85.333c0.853,2.56-0.853,4.267-3.413,5.12c-2.56,0.853-4.267-0.853-5.12-3.413l-16.213-81.92
	c-104.96,0-161.28,16.213-171.52,48.64l-8.533,34.133C8.533,503.467,6.827,505.173,5.12,505.173z M252.587,505.173
	c-2.56,0-4.267-1.707-4.267-4.267v-46.933c-9.387-1.707-17.067-10.24-17.067-21.333c0-11.947,9.387-21.333,21.333-21.333
	c11.947,0,21.333,9.387,21.333,21.333c0,10.24-7.68,18.773-17.067,21.333v46.933C256.853,503.467,255.147,505.173,252.587,505.173z
	 M252.587,419.84c-6.827,0-12.8,5.973-12.8,12.8c0,6.827,5.973,12.8,12.8,12.8s12.8-5.973,12.8-12.8
	C265.387,425.814,259.413,419.84,252.587,419.84z M252.587,385.707c-59.733,0-76.8-26.453-87.893-42.667l-1.707-1.707
	c-15.36-23.04-37.547-79.36-41.813-92.16c-10.24-1.707-17.92-10.24-17.92-21.333v-34.133c0-11.947,9.387-21.333,21.333-21.333
	c2.56,0,4.267,1.707,4.267,4.267c0,1.707,0.853,11.093,10.24,12.8c7.68-17.067,15.36-47.787,15.36-64
	c0-2.56,1.707-4.267,4.267-4.267c52.907,0,135.68-8.533,150.187-32.427c0.853-1.707,2.56-2.56,5.12-1.707
	c1.707,0.853,3.413,2.56,3.413,4.267c0,31.573,32.427,64.853,33.28,64.853c1.707,1.707,1.707,4.267,0,5.973s-4.267,1.707-5.973,0
	s-29.013-29.867-34.133-61.44c-30.72,25.6-124.587,28.16-145.92,28.16c-0.853,18.773-9.387,49.493-17.067,65.707
	c-0.853,1.707-2.56,2.56-3.413,2.56c-13.653,0-18.773-9.387-20.48-16.213c-5.12,1.707-9.387,6.827-9.387,11.947v34.133
	c0,6.827,5.973,12.8,12.8,12.8c1.707,0,3.413,0.853,4.267,2.56c0,0.853,25.6,68.267,41.813,93.013l1.707,1.707
	c10.24,15.36,25.6,38.4,80.213,38.4s69.973-23.04,80.213-38.4v-0.853h-34.133c-1.707,9.387-10.24,17.067-20.48,17.067
	c-11.947,0-21.333-9.387-21.333-21.333c0-11.947,9.387-21.333,21.333-21.333c10.24,0,18.773,7.68,21.333,17.067h39.253
	c8.533-14.507,17.92-37.547,25.6-55.467c0-0.853,0-1.707,0.853-2.56c6.827-15.36,11.093-28.16,11.093-28.16
	c0.853-1.707,2.56-2.56,4.267-2.56c6.827,0,12.8-5.973,12.8-12.8V192c0-6.827-5.973-12.8-12.8-12.8c-2.56,0-4.267-1.707-4.267-4.267
	v-51.2c0-3.413-0.853-89.6-81.067-89.6c-1.707,0-2.56-0.853-3.413-1.707c-0.853-0.853-0.853-2.56,0-4.267
	c2.56-5.12,0.853-8.533,0.853-9.387C290.987,11.947,276.48,8.533,256,8.533c-139.093,0-140.8,127.147-140.8,132.267
	c0,2.56-1.707,4.267-4.267,4.267l0,0c-2.56,0-4.267-1.707-4.267-4.267C106.667,139.093,108.374,0,256,0
	c14.507,0,39.253,1.707,46.933,14.507c1.707,2.56,2.56,5.973,1.707,11.093c82.773,4.267,83.627,97.28,83.627,98.133v47.787
	c9.387,1.707,17.067,10.24,17.067,20.48v34.133c0,11.093-7.68,19.627-17.92,21.333c-1.707,4.267-5.12,13.653-9.387,24.747
	c6.827,6.827,10.24,16.213,10.24,26.453c0,21.333-17.067,38.4-38.4,38.4h-2.56c-0.853,0.853-1.707,2.56-1.707,3.413l-1.707,1.707
	C329.387,359.253,312.32,385.707,252.587,385.707z M278.187,320.853c-6.827,0-12.8,5.973-12.8,12.8s5.973,12.8,12.8,12.8
	c5.973,0,11.947-4.267,12.8-11.093c0-0.853,0-0.853,0-1.707c0-0.853,0-1.707,0.853-1.707
	C290.133,325.973,285.013,320.853,278.187,320.853z M370.347,282.453c-6.827,15.36-14.507,33.28-22.187,46.933
	c15.36-1.707,27.307-14.507,27.307-29.867C375.467,293.547,373.76,287.573,370.347,282.453z M226.987,320.853
	c-0.853,0-19.627,0-29.013-19.627c-0.853-1.707,0-4.267,1.707-5.973c1.707-0.853,4.267,0,5.973,1.707
	c7.68,14.507,21.333,14.507,22.187,14.507c2.56,0,4.267,1.707,4.267,4.267S229.547,320.853,226.987,320.853z M295.253,223.573
	c-2.56,0-4.267-1.707-4.267-4.267v-4.267h-12.8c-2.56,0-4.267-1.707-4.267-4.267c0-2.56,1.707-4.267,4.267-4.267h34.133
	c2.56,0,4.267,1.707,4.267,4.267c0,2.56-1.707,4.267-4.267,4.267h-12.8v4.267C299.52,221.867,297.813,223.573,295.253,223.573z
	 M209.92,223.573c-2.56,0-4.267-1.707-4.267-4.267v-4.267h-12.8c-2.56,0-4.267-1.707-4.267-4.267c0-2.56,1.707-4.267,4.267-4.267
	h34.133c2.56,0,4.267,1.707,4.267,4.267c0,2.56-1.707,4.267-4.267,4.267h-12.8v4.267C214.187,221.867,212.48,223.573,209.92,223.573
	z"/>
<g>
</g>
<g>
</g>
<g>
</g>
<g>
</g>
<g>
</g>
<g>
</g>
<g>
</g>
<g>
</g>
<g>
</g>
<g>
</g>
<g>
</g>
<g>
</g>
<g>
</g>
<g>
</g>
<g>
</g>
</svg>
